<svg id="Solid" height="512" viewBox="0 0 512 512" width="512" xmlns="http://www.w3.org/2000/svg"><path d="m48 416h416v40h-416z"/><path d="m96 352a16 16 0 0 0 -16-16h-16a16 16 0 0 0 -16 16v7h48z"/><path d="m24 376h464v24h-464z"/><path d="m424 360h24a16 16 0 0 0 16-16v-40h-56v40a16 16 0 0 0 16 16z"/><path d="m410.88 288h16c0-1.945.474-2.608 2.891-5.127 2.926-3.049 7.349-7.655 7.349-16.207s-4.422-13.158-7.349-16.207c-2.417-2.519-2.891-3.182-2.891-5.128s.474-2.607 2.891-5.124c2.926-3.049 7.349-7.655 7.349-16.207h-16c0 1.945-.474 2.607-2.891 5.126-2.927 3.048-7.349 7.654-7.349 16.2s4.422 13.159 7.349 16.208c2.417 2.519 2.891 3.182 2.891 5.127s-.474 2.608-2.891 5.127c-2.929 3.054-7.349 7.66-7.349 16.212z"/><path d="m442.88 288h16c0-1.945.474-2.608 2.891-5.127 2.926-3.049 7.349-7.655 7.349-16.207s-4.422-13.158-7.349-16.207c-2.417-2.519-2.891-3.182-2.891-5.128s.474-2.607 2.891-5.124c2.926-3.049 7.349-7.655 7.349-16.207h-16c0 1.945-.474 2.607-2.891 5.126-2.927 3.048-7.349 7.654-7.349 16.2s4.422 13.159 7.349 16.208c2.417 2.519 2.891 3.182 2.891 5.127s-.474 2.608-2.891 5.127c-2.929 3.054-7.349 7.66-7.349 16.212z"/><circle cx="256" cy="104" r="48"/><path d="m368 360 16-160h-256l16 160zm-112-104a24 24 0 1 1 -24 24 24 24 0 0 1 24-24z"/><path d="m312 152h-112a32 32 0 0 0 -32 32h176a32 32 0 0 0 -32-32z"/></svg>